<?xml version="1.0" encoding="utf-8"?>
<!-- Generator: Adobe Illustrator 17.1.0, SVG Export Plug-In . SVG Version: 6.00 Build 0)  -->
<!DOCTYPE svg PUBLIC "-//W3C//DTD SVG 1.1//EN" "http://www.w3.org/Graphics/SVG/1.1/DTD/svg11.dtd">
<svg version="1.1" id="Layer_1" xmlns="http://www.w3.org/2000/svg" xmlns:xlink="http://www.w3.org/1999/xlink" x="0px" y="0px"
	 viewBox="0 0 686 201" enable-background="new 0 0 686 201" xml:space="preserve">
<metadata><?xpacket begin="﻿" id="W5M0MpCehiHzreSzNTczkc9d"?>
<x:xmpmeta xmlns:x="adobe:ns:meta/" x:xmptk="Adobe XMP Core 5.5-c014 79.151739, 2013/04/03-12:12:15        ">
   <rdf:RDF xmlns:rdf="http://www.w3.org/1999/02/22-rdf-syntax-ns#">
      <rdf:Description rdf:about=""
            xmlns:xmp="http://ns.adobe.com/xap/1.0/"
            xmlns:xmpGImg="http://ns.adobe.com/xap/1.0/g/img/"
            xmlns:xmpTPg="http://ns.adobe.com/xap/1.0/t/pg/"
            xmlns:stDim="http://ns.adobe.com/xap/1.0/sType/Dimensions#"
            xmlns:xmpG="http://ns.adobe.com/xap/1.0/g/"
            xmlns:dc="http://purl.org/dc/elements/1.1/"
            xmlns:xmpMM="http://ns.adobe.com/xap/1.0/mm/"
            xmlns:stRef="http://ns.adobe.com/xap/1.0/sType/ResourceRef#"
            xmlns:stEvt="http://ns.adobe.com/xap/1.0/sType/ResourceEvent#"
            xmlns:pdf="http://ns.adobe.com/pdf/1.3/">
         <xmp:CreatorTool>Adobe Illustrator CC (Macintosh)</xmp:CreatorTool>
         <xmp:CreateDate>2014-07-02T17:42:44-07:00</xmp:CreateDate>
         <xmp:ModifyDate>2014-07-02T17:42:44-07:00</xmp:ModifyDate>
         <xmp:MetadataDate>2014-07-02T17:42:44-07:00</xmp:MetadataDate>
         <xmp:Thumbnails>
            <rdf:Alt>
               <rdf:li rdf:parseType="Resource">
                  <xmpGImg:width>256</xmpGImg:width>
                  <xmpGImg:height>52</xmpGImg:height>
                  <xmpGImg:format>JPEG</xmpGImg:format>
                  <xmpGImg:image>/9j/4AAQSkZJRgABAgEASABIAAD/7QAsUGhvdG9zaG9wIDMuMAA4QklNA+0AAAAAABAASAAAAAEA&#xA;AQBIAAAAAQAB/+4ADkFkb2JlAGTAAAAAAf/bAIQABgQEBAUEBgUFBgkGBQYJCwgGBggLDAoKCwoK&#xA;DBAMDAwMDAwQDA4PEA8ODBMTFBQTExwbGxscHx8fHx8fHx8fHwEHBwcNDA0YEBAYGhURFRofHx8f&#xA;Hx8fHx8fHx8fHx8fHx8fHx8fHx8fHx8fHx8fHx8fHx8fHx8fHx8fHx8fHx8f/8AAEQgANAEAAwER&#xA;AAIRAQMRAf/EAaIAAAAHAQEBAQEAAAAAAAAAAAQFAwIGAQAHCAkKCwEAAgIDAQEBAQEAAAAAAAAA&#xA;AQACAwQFBgcICQoLEAACAQMDAgQCBgcDBAIGAnMBAgMRBAAFIRIxQVEGE2EicYEUMpGhBxWxQiPB&#xA;UtHhMxZi8CRygvElQzRTkqKyY3PCNUQnk6OzNhdUZHTD0uIIJoMJChgZhJRFRqS0VtNVKBry4/PE&#xA;1OT0ZXWFlaW1xdXl9WZ2hpamtsbW5vY3R1dnd4eXp7fH1+f3OEhYaHiImKi4yNjo+Ck5SVlpeYmZ&#xA;qbnJ2en5KjpKWmp6ipqqusra6voRAAICAQIDBQUEBQYECAMDbQEAAhEDBCESMUEFURNhIgZxgZEy&#xA;obHwFMHR4SNCFVJicvEzJDRDghaSUyWiY7LCB3PSNeJEgxdUkwgJChgZJjZFGidkdFU38qOzwygp&#xA;0+PzhJSktMTU5PRldYWVpbXF1eX1RlZmdoaWprbG1ub2R1dnd4eXp7fH1+f3OEhYaHiImKi4yNjo&#xA;+DlJWWl5iZmpucnZ6fkqOkpaanqKmqq6ytrq+v/aAAwDAQACEQMRAD8A9L+YfMei+XdJm1bWboWl&#xA;hBT1JirOd+yogZ2PsoOKsQ0z8/fyl1TUrTTLHXfWvb6aO2tYvql4vOWZwiLyaFVFWYCpNMVpk1v5&#xA;w0mdyiQakCrFD6ml6lGKjwL26gj36Yqm1tcx3EQkjDqp2pJG8Tf8DIFb8MVQHmdvMq6Jcv5aFq2s&#xA;ovK2ivldoJCP2GMbxspPY1/rir5b1D/nJX84tF8wta6zaWlvLZyFLzSpLYxg+I5cmcbbqwanfcYp&#xA;pmv5Z/mh5Z8z/m3L5mm1BdIkv9IGnNo145X/AElJonQwy/3UqsqtSvF67cTWuKH0CssTu6K6s8dO&#xA;aggla9Kjtiq7FUPqF9b6fp9zf3JIt7SJ55iBUhI1LtQd9hir58vv+ctHmv7yTRtDVtIsIRMxu5Ct&#xA;xPW4ii29PkkXwynrzxTTJNS/5ym8iweVYNYs7a6uNQuWkhj0t19MpLEqM/qTfEnD94tCtSfDFFPR&#xA;/wAv/Md15l8maTr11EkE+owCZ4Yq8FqTQDkSegxVgn/OQ/5q655D0nSotDES6jq0k1LiVPUEcVuE&#xA;58VPw8i0q9fuxUJV/wA47/nJ5o87X+qaT5h9Kae0hW6t7uJBEeJcIyOq/Cd2BBA8cUl7hih4pr/5&#xA;zfmC995hv/KWgWeoeVPKczwardXEjrPM0ArcGDi6hRGKkni3w7+2KvWvLmu2Wv6Dp+t2VfquowR3&#xA;EQb7SiRQeLU/aU7H3xVMcVQ2o6npumWcl7qV3DZWcVPVubmRYolqaDk7lVFSfHFWBfmN+eflHyPN&#xA;pkN0supSanGLmMWRRwtqxos3JmCsGIPGh3pirMbPzV5bvJLGGDU7VrnU7dLywtTMgnmgkXmsiRE8&#xA;2XjvUDFU1xVgf5g/mzZ+UNVtNHj0e+1rVLu3kvFt7FFbjBDXm7Emv7J6DtirIPJXm/S/OHlmz8w6&#xA;YsiWl4H4xzALIjRuY3VgCw2ZT0OKp5iqTXfnTydZrcNd67p1utpMLW6Mt3AginYMwik5OOLkIx4n&#xA;fY+GKoP/AJWb+W3/AFNmjf8AcQtf+qmKsgtLu0vLWK7s5o7m1nQSQXELCSN0YVVkdSVYEdCMVXTz&#xA;wQQvNPIsUMYLSSuQqqo6lmOwGKsLb87PytE0sS6/DL6H9/NDHPNAgJoC08cbRKCehLb4qyzStY0r&#xA;V7GO/wBKvIb6yl/u7i3dZEPtyUncdxiryb/nKf8A8l/Yf9tFv+6de4q+YPyy/wDJk+U/+2zp/wD1&#xA;FR4sn175O0365cMz2KrGkhDTmDTX4lakVaO8vpFJFO1fH2LB6KiIiBEUKiiiqBQAewGBLeKvMfzw&#xA;8uflPPo0Wt+e0aAQN9Xtry15Lcu7qzLCvANz2QkB9hv03xV8i3ut6FY3k/8AhaymhhLH6vfak0dx&#xA;eKu1OIRUhjbb7QUsOzDFky38pvyl83ef9Z/STXE9jpSScr3W3Leq7HdlhYmskh7novfwKh9naJo9&#xA;no2lW2mWZka3tUEaNM7SyNTqzu5LMScUILzt/wAoZr//AGzrv/kw+KvgTSB/uP1v/mCT/qNtsWTr&#xA;j/lGbD/mNvP+TVrir7f/ACT/APJUeWP+YJP+JHFiwf8A5ys8nXGseS7XXrdkDeXpHedHNC0F0Y42&#xA;4/5QdE28K4pCQ/8AOI3k+6gttU82SyJ6F4osbWJTV/3b85WcdtwoX6cVL33X5pYdC1KaJiksdrM8&#xA;bqaFWWNiCD7HFD4Kh/Mnz3Baz2kGt3UVrdF2ubdH4xymQcXMiAUbkNjXrimn1X/zjJq2pan+WYmv&#xA;7h7iSK+nhiLn7MarGVRQNgoqdhih6ziryf8A5yb0iXU/yyaOG49KaC9hmig+Im5YK6+goUGrHnyU&#xA;dyuKvBPN/lry5f6D5Os9O8xQ3+s6ZaCz11Yw7x2tq9xLc+sXIUcLYzsjgb0p0xTbIY9J8st+dHlb&#xA;VNI8z203lq0i01Ev3dk9M6fbxQJavyUKjz+kDxNPtN4Yq+mfNfnDy75T0sarr90bPT/UWEziKaYB&#xA;3BKgiFJGAPHqRT78UPnj88fMflL8wBp2p+QtXe88wabW1uoIYrm2ke0vHWEEGWOLkBLIEIB6Pvil&#xA;nnkf83/yX8peV9L8rxeYVkl02IQStFaXrrJcFi0zIUgIIeVmIp44q9jVgyhhWhFRUEH7jih8++d7&#xA;WJrfzRVvKPxeYIWP1+SQLX0bn/eqjbXW/wAIH7PLCrAfqEH835df8jpv+a8UvqD8vrK6svJekW10&#xA;lrHMlupKafy+qhWJZPR5ktx4kdcCHl3586reWvnDy9H5isbu7/LGGP19aFokhja6LSJGLh04jgje&#xA;mwQsK79dsVeMyfm/a+Xl84aF5K06KPyv5hZltRdqWmhV4vRkK1Zqq25RXrx29ximmbflzqHlnynr&#xA;nkmHyHrU2r33mRo4PNGkSGsaqygvMUCj0ngJYjckqD26qvf/ADz5F0vzlplvp+ozz28VtcfWo3tx&#xA;AxLejJAVZbiK4jZSk7fs9aYoYz5c/ILyPoesW2qoZrye0dZbeO4hsEVZUYMkgNta28nJGFR8dMVe&#xA;jQwwwxrFCixxrsqIAqj5AYqvxV2Ksd88+QvL3nbS7fS9eSSWytrlbtY4pDGWkRHjAZl348ZT0pir&#xA;zLyn+WGh6H+e19BZaAI/LkGhK1pLNE88AumniHJZZuf73iH/AGq0rir25VVVCqAFAoANgAMVbxVD&#xA;anYQajpt3p9xyEF5DJbylDRuEqlGoTXehxVIfLP5ZeQ/LWny2Gk6NbRw3Mfo3bSoJpJ0O5WV5ebO&#xA;pO/E7e2KpLbfkJ+V1vqK3g0dZI45ZLiGxldntUklCK5ETGhH7ofC1VHYYqz+KKKGJIokWOJAFSNA&#xA;FVQNgABsBirxD85/yK87eddXbUNN8yiSzoDDo1+XjggIFD6RhV1NfFk5eLHFIQn5Q/8AOPHm3yjr&#xA;0Ws6n5iFssZBfT9LaQpcAdEneVUUr4rwPsRipL3qaGKaF4ZVDxSKUkRtwysKEEe4xQxP/lUX5X/9&#xA;Stpn/SNH/TFU/wBE8v6JoVkbHRrGHT7MuZDb26CNObUBbivc0GKo/FUu8xeXtJ8xaLdaNq8AuNPv&#xA;E4TRnY9ahlI3DKRUHscVfM/mH/nELzNHfN/h7WLO5sGb4BfGSCZFJFOXpxyo1O5FPlim2bflT/zj&#xA;LZeWdUg13zLdxapqdqwktLSBW+rRSrQiQs4VpGU/Zqqgddz0Vt7H5h0DSvMOi3ejatALjT72Mxzx&#xA;HbbqGU9mUgFT2OKHzlqP/OK/nPSNXku/J2u2xt2Dxxm8MkM6RygoVJjjlRuIb7Xw+IFaYptk35Wf&#xA;84w2nlzVbfXPM95Fqd/aMJLWyt1b6tHKu4dmkCtIVO6/CtD44rb3fFDy/wA9/lfrV/Zal+gINDuL&#xA;jUdQhv3h1SzXh8EUySFnRZPUlLSrwZlFByFcVS/yT+R8sFz9Z842HlydEB4WWm6cgUnejNPIqNt1&#xA;oE+nxVewAAAACgGwAxVKPN3lu38zeWtR0G4nktodRhaF54ac1B3qOQI7bjwxV5BoH/OLeh6Hplzc&#xA;vLF5g8x8GGn/AKQVodOjkOyu8Ces0nEGvFyVbpQdcU2z38pfy0HkXy/LZXNzHqGp3d095d3qQrF8&#xA;boF4Kd2KrQ0J8TsMUKP/ACvv8of+pkg/5Fz/APVPFVRfzz/Kdrd7geYoDDG6Ru/pz0DSBio/u+4j&#xA;b7sVU/8Alff5Q/8AUyQf8i5/+qeKsy0XWtL1zS7fVdKuBdafdAtb3ChgGAYqSAwB6g9sVRuKuxV2&#xA;KuxV2KuxV2KuxV2KuxV2KuxV2KuxV2KuxV2KuJABJNANyTiqTeXvOPlzzDcalb6RepdTaTcG0vkW&#xA;oKSL7GlVqCA3QkHFU1mubeAAzSpEG+zzYLWnhXFXPcW6RCV5UWJqFZCwCmvTfpvircU0Myc4nWRO&#xA;nJCGH3jFWM+fvzE0byZaWb3kM99f6jMLfTdLs0ElzcSEivBCRsvIV+YHU4qwXzD/AM5K6X5cuktN&#xA;d8qa1p1xKvqRJcRwpzXpVSZKN9GK09A/L/z1pnnfy1Dr+mwzW9vLJJEYbgKHVom4n7BYe/XFWR4q&#xA;kmp+ePJWlXj2Wp+YNNsLyMAyW1zeQQyqGFRVHdWFR7Yqo235i/l9c3EdtbeZ9JnuJmEcMMd9bO7u&#xA;xoqqquSST0AxV8B/ojVv+WKf/kU/9MWVplb6Vqn+G79fqc/I3lmQPTetBFdV7e+KEt/RGrf8sU//&#xA;ACKf+mKbfcH5ERSRflL5cjkQpIsEgZGBBH7+TqDixZ7iqV+aPMul+WfL97ruquY7Gwj9SUqKsSSF&#xA;RFG1Wd2Cr7nFXhGs/wDOR/nO0vLszWek6Jbfo+PU9Jtr0T3s15HMw9NFltZUjjd0JPxLsRvtvil6&#xA;j+WX5nf4vhls9S02XRPMVrDFc3Gmzg/HbzisdxCWClkbvtVTscUMg85+Zk8seWb7XGtZL02ir6dp&#xA;D9uWSR1ijQGjUq7ippsN8VSnyT5z13V9V1TRPMOijRtX0xYJuMU4uYJYbhSVZJAqfEhWjCnhiqtr&#xA;nn+307zHF5et7Ca91CWNJBSW3t4y0vP04ka4ki9SVliduKA0AxVKtI/M+58x69eeXdC0wx6lprU1&#xA;W7upYZLW2B2FDbSSGaQmq+mCtCDVh3VZrqN+unadLeTIZRAnJ0j4KW7beq6IP9k2KpXpfm+11GdY&#xA;IrV1latE+sWEjUArXjDcymn0Yqn2Ksa/MyHUZvy+8wxaak0moPYTrax2wZpmkKHiIwnxFq9KYq+R&#xA;PL3lz8511/TWuNL8xrbrdQGZpIL4IEEi8i1VpSnWuKVbzf5d/OSTzZrb2emeYntHv7prdoYL4xmM&#xA;zMUKFV48ePSmKvqf8m7fV7f8s9Ch1iK4h1NIXFzHeK6zhjM5HMSUcGlOuKEu/P7Vb/TPyv1Keyna&#xA;3lkltoHlRzGfTluESReY3TkpIJHbFXyT9c816t5uuNJ0jUrhBLdTrbxx3008EcMbMxYT1rJHHGpb&#xA;nSpUVxSya01jX9Wsbryp5c1GeHSIl5+afNGoSyoHjBoQ5clobevwpCvxyHrWvEKvqv8ALryromg+&#xA;W7NtOk+uTXlvBLc6u6BJ7ukYEckmwOyUCg7gdampKh4p+euq6/N+YV6r/Vb7Q/LelSXI027aKP49&#xA;QtpLZpIyUZ5HRmVwu9Cu1OuFWE6lq/5qWulJo2tapp+peXfKkem3r6UGs+MkEbhbeFJEi9SQgR0c&#xA;VJp1rgS9i/5x3/xBp+o+b/LupzWxtbCa1vLK1s3ilhhOoG4kkVZo1Uv9hRv0ptTFDzz/AJyd8xeY&#xA;dG/NjR77T7hrWaw06OXTpgqsFaSWZZGAYMtTSnTsMUh5z+YWtr+h/LvleCG5S20m2N5JcX8bx3E1&#xA;1qKpNMyrIAVhqB6dPtD4qmuKh9K/84t/+Sntv+Yy6/4mMUF65ir5p0PXLiy8x+arf/Dei60b/wA3&#xA;arbw3eq3MMUyOiNNwIkikIhEcB4tWnI8cVQHnjzW+reQr/0/KHl/TEudOttQS8tbmA3UUVxICnBF&#xA;hRvV+GjJWoGFXg/6X1b/AJbZ/wDka/8AXAypMrfVdU/w3ft9cn5C8swD6j1oYrqvf2xQlv6X1b/l&#xA;tn/5Gv8A1xTT7g/IiWSX8pfLkkjl5GgkLOxJJ/fydScWLPcVQesaPpms6ZcaXqlul3YXS8Li3k+y&#xA;wBBFaU6EVxV80S/84naxDd6rdy3aXdlCznSNNs3Czzgn92kktxxSFVr8R+I0Bp2xTb1b8m/yji8n&#xA;2EGq6uWn83TWxtbyYztPHHAHBihi5BaKqRoPboCRTFCt+fnlbzV5l8irp3liBrjUheQy+mk0cB9N&#xA;VcMecjxr+0Nq4q87/IL8sPzS8s+eZNR8z2UtvppspoVke7gnHqs8ZUcI5ZG6Kd6YpLLfzU8kDXdX&#xA;1P6xpN5LLNZWsnl/XrBVkktL22eUsrAMsihuSE7UI6EMBhQnH5WeWv0NctFbaXc6fp1rplpZm4vF&#xA;WOW6uxLNNcTcAzNuZRVmp1oNhirN9etbm70i6trZQ08qcY1JjUE1HUyxXMf/AAUbfLAqzQdNuLCy&#xA;SKeUtJT44x6PBSAB8Jhgta7D+QYqmWKsa/Muz1C8/L/zDaadHJNfz2E6WsUIJkaRkIUJTetcVfI3&#xA;l/8ALr84Ite02W40XV1gjuoGmZ0l4hBIpYn2pilX83fl5+b1x5s1qe00bVntZb+6e3eNJeDRtMxQ&#xA;rQ9CvTFX1X+U9hqVh+XOgWepwyW+oQ2oW5hmBEivyJPIHeuKEu/PLQdX1z8t9RstJge5vVkt7hII&#xA;lDyMsE6SP6aHZ24qaL36Yq+O7nW5dJ80eY3uLV57m7ku7WZblFtJU9SesvqQ2/wxOwUo6RsAAWUG&#xA;mKUx0VPNn5iarp/lPSLaO0suYd7W0WQW8YHwvd3LSPJJIyqacpHJ/ZXrTFX3Rp1jBYafbWMFRBaR&#xA;JBED14RqFX8Bih5R+c/5SXev/pLXND0+11PWb2yWze3uyFeP0iWSa0dvhWWh4kMQCO47qvNdb/J7&#xA;zzfz67a2/krSreSazsUtpLeRo0ikVzye1kZI0aRv93BiBTxwq91/LjyBb+WP0jqJs7TTtQ1n6ubv&#xA;T9NqLOEWyMqLHyCliTIzM1BUn2wKjfOP5Z+R/OUlrL5k0xb6SzDLbv6s0LKrkFgTC8ZYfD36Yqwv&#xA;zP8A84y/lpqmlTQaXayaTqZUfVtQFxc3PAqKKrRzyurJ4gUPgRim2cfl35RtvKXkzStCiijimtre&#xA;P68YmZkku2QG4kDP8VHkqR7dh0xQyPFXz/rP5OeaLbzXc3dv5e0TzDa6lr15qwu71nSQQ3dtNS1u&#xA;BwekMcjclIJrJx2FdlKV6L+SPmbWNPs9O1Hyxo+j2tzpdjBc6qpY3sTIS8sojKD/AEtx8MgJ4jxO&#xA;KHf9YY/5/pzFO6Kj/wChP/0ZccP94fWh9f8A47f97wl9Lr8X2fU6bePbFUL/ANYY/wCf6cxXd7r5&#xA;B/wn/hDTf8Jf8o56bfo7+++xzbl/vR+9+3X7WKE/xV2KuxV2KuxV2KuxV2KuxV2KuxV2KuxV2Kux&#xA;V2KvHfzD/wChaf03N/i39H/pnn/pfofWPW9Sv+7/AKlvy8ee/jirNPy4/wCVZfop/wDAf1D6nUfW&#xA;PqVPU5dvWr+9r4c8VZdirsVdirsVdirsVdirsVdirsVf/9k=</xmpGImg:image>
               </rdf:li>
            </rdf:Alt>
         </xmp:Thumbnails>
         <xmpTPg:NPages>1</xmpTPg:NPages>
         <xmpTPg:HasVisibleTransparency>False</xmpTPg:HasVisibleTransparency>
         <xmpTPg:HasVisibleOverprint>False</xmpTPg:HasVisibleOverprint>
         <xmpTPg:MaxPageSize rdf:parseType="Resource">
            <stDim:w>9.527778</stDim:w>
            <stDim:h>2.791667</stDim:h>
            <stDim:unit>Inches</stDim:unit>
         </xmpTPg:MaxPageSize>
         <xmpTPg:PlateNames>
            <rdf:Seq>
               <rdf:li>Black</rdf:li>
            </rdf:Seq>
         </xmpTPg:PlateNames>
         <xmpTPg:SwatchGroups>
            <rdf:Seq>
               <rdf:li rdf:parseType="Resource">
                  <xmpG:groupName>Default Swatch Group</xmpG:groupName>
                  <xmpG:groupType>0</xmpG:groupType>
               </rdf:li>
            </rdf:Seq>
         </xmpTPg:SwatchGroups>
         <dc:format>image/svg+xml</dc:format>
         <dc:title>
            <rdf:Alt>
               <rdf:li xml:lang="x-default">SVG_sprite</rdf:li>
            </rdf:Alt>
         </dc:title>
         <xmpMM:RenditionClass>proof:pdf</xmpMM:RenditionClass>
         <xmpMM:DocumentID>xmp.did:690ae698-bd5a-499a-8015-f677047746ff</xmpMM:DocumentID>
         <xmpMM:InstanceID>xmp.iid:690ae698-bd5a-499a-8015-f677047746ff</xmpMM:InstanceID>
         <xmpMM:OriginalDocumentID>uuid:cab24553-c174-8b4f-92a3-fa109202ddb8</xmpMM:OriginalDocumentID>
         <xmpMM:DerivedFrom rdf:parseType="Resource">
            <stRef:instanceID>uuid:32c2ecc8-9d72-b54b-b810-febac70322f8</stRef:instanceID>
            <stRef:documentID>xmp.did:8b2f2ffb-6eaa-43d0-9556-fe808950a27a</stRef:documentID>
            <stRef:originalDocumentID>uuid:cab24553-c174-8b4f-92a3-fa109202ddb8</stRef:originalDocumentID>
            <stRef:renditionClass>proof:pdf</stRef:renditionClass>
         </xmpMM:DerivedFrom>
         <xmpMM:History>
            <rdf:Seq>
               <rdf:li rdf:parseType="Resource">
                  <stEvt:action>saved</stEvt:action>
                  <stEvt:instanceID>xmp.iid:8b2f2ffb-6eaa-43d0-9556-fe808950a27a</stEvt:instanceID>
                  <stEvt:when>2014-07-02T17:42:28-07:00</stEvt:when>
                  <stEvt:softwareAgent>Adobe Illustrator CC (Macintosh)</stEvt:softwareAgent>
                  <stEvt:changed>/</stEvt:changed>
               </rdf:li>
               <rdf:li rdf:parseType="Resource">
                  <stEvt:action>saved</stEvt:action>
                  <stEvt:instanceID>xmp.iid:690ae698-bd5a-499a-8015-f677047746ff</stEvt:instanceID>
                  <stEvt:when>2014-07-02T17:42:44-07:00</stEvt:when>
                  <stEvt:softwareAgent>Adobe Illustrator CC (Macintosh)</stEvt:softwareAgent>
                  <stEvt:changed>/</stEvt:changed>
               </rdf:li>
            </rdf:Seq>
         </xmpMM:History>
         <pdf:Producer>Adobe PDF library 11.00</pdf:Producer>
      </rdf:Description>
   </rdf:RDF>
</x:xmpmeta>
                                                                                                    
                                                                                                    
                                                                                                    
                                                                                                    
                                                                                                    
                                                                                                    
                                                                                                    
                                                                                                    
                                                                                                    
                                                                                                    
                                                                                                    
                                                                                                    
                                                                                                    
                                                                                                    
                                                                                                    
                                                                                                    
                                                                                                    
                                                                                                    
                                                                                                    
                                                                                                    
                           
<?xpacket end="w"?>
	</metadata>
<path fill-rule="evenodd" clip-rule="evenodd" d="M343,77.906V88h-14V77.906H343z M333.2,77.2c0,0-0.029-4.32,2.8-4.32
	c2.829,0,2.8,3.793,2.8,4.32c0.819,0.019,2.219-0.002,2.8,0c0-3.042-1.552-7.2-5.6-7.2c-4.048,0-5.6,4.625-5.6,7.2
	C331.539,77.24,333.2,77.2,333.2,77.2z"/>
<path fill-rule="evenodd" clip-rule="evenodd" d="M297,114l0.017,0.95L308,114H297z M306.317,116.975l-9.3,1.012v-1.012H306.317z
	 M304.25,120.013l-7.233,1.012v-1.012H304.25z M301,123l-3.983,1.063L297,123H301z"/>
<path d="M454.828,78H439v-3h14.993C454.39,75.947,454.664,76.955,454.828,78z M454.999,80H439v3h15.641
	c0.226-0.96,0.359-1.956,0.359-2.984C455,80.01,454.999,80.005,454.999,80z M439,88h13.237c0.714-0.912,1.315-1.916,1.767-3H439V88z
	 M439,92.639c0.964,0.228,1.964,0.361,2.998,0.361c0,0,0.002,0,0.002,0s0.002,0,0.002,0c3.16-0.001,6.054-1.128,8.306-3H439V92.639z
	 M434,78h3v-3h-3V78z M434,83h3v-3h-3V83z M434,88h3v-3h-3V88z M434,90.236c0.912,0.713,1.916,1.314,3,1.766V90h-3V90.236z"/>
<path d="M469.141,85.062c1.527,0,2.766,1.231,2.766,2.75c0,0.679-0.257,1.292-0.667,1.772c1.039,0.951,2.228,1.739,3.535,2.314
	l10.94-5.47l-4.331,6.496c2.265-0.24,4.352-1.067,6.117-2.319c-0.253-0.415-0.407-0.897-0.407-1.418c0-1.519,1.238-2.75,2.766-2.75
	c0.448,0,0.866,0.116,1.24,0.305c0.766-1.258,1.336-2.648,1.639-4.139C490.478,77.536,485.406,74,479.5,74
	c-5.296,0-9.914,2.848-12.445,7.087c0.122,1.476,0.49,2.88,1.064,4.175C468.435,85.136,468.779,85.062,469.141,85.062z
	 M487.094,79.531c1.519,0,2.75,1.238,2.75,2.766c0,1.527-1.231,2.766-2.75,2.766c-1.519,0-2.75-1.238-2.75-2.766
	C484.344,80.77,485.575,79.531,487.094,79.531z M480.188,75.375c1.519,0,2.75,1.238,2.75,2.766s-1.231,2.766-2.75,2.766
	s-2.75-1.238-2.75-2.766S478.669,75.375,480.188,75.375z M473.297,78.156c1.527,0,2.766,1.231,2.766,2.75
	c0,1.519-1.238,2.75-2.766,2.75s-2.766-1.231-2.766-2.75C470.531,79.388,471.769,78.156,473.297,78.156z"/>
<path d="M410,72c-9.767,0,0,11.935,0,16C410,83.884,419.768,72,410,72z M408,76c0-1.105,0.895-2,2-2s2,0.895,2,2s-0.895,2-2,2
	S408,77.105,408,76z M422.243,84.347C420.456,89.385,415.657,93,410,93c-5.787,0-10.686-3.78-12.37-9l9.37,0l3,6l3-6l9,0
	L422.243,84.347z"/>
<path d="M366.969,79.188c0-2.313,1.343-4.188,3-4.188c1.657,0,3,1.875,3,4.188c0,1.716-0.741,3.187-1.799,3.834V84.6l-1.195,1.2
	l-1.195-1.2v-1.57C367.715,82.387,366.969,80.91,366.969,79.188z M385.428,83.024V84.6l1.195,1.2l1.195-1.2v-1.573
	c1.063-0.644,1.807-2.119,1.807-3.839c0-2.313-1.343-4.188-3-4.188s-3,1.875-3,4.188C383.625,80.906,384.368,82.378,385.428,83.024z
	 M388.672,84.768L386.623,87h0l-2.042-2.293c0,0-0.597,0.155-1.333,0.449c-1.107-0.566-2.274-0.946-2.274-0.946L378.379,87h0
	l-2.587-2.866c0,0-1.4,0.361-2.743,1.028c-0.572-0.245-1.025-0.394-1.025-0.394L369.975,87h0l-2.042-2.293
	c0,0-0.394,0.104-0.934,0.298c0.292,0.7,0.65,1.363,1.055,1.995l0,0c2.31,3.604,6.345,6,10.947,6c4.603,0,8.637-2.396,10.947-6l0,0
	c0.278-0.433,0.526-0.885,0.752-1.351C389.766,85.128,388.672,84.768,388.672,84.768z M376.865,82.059V84l1.514,1.5l1.513-1.5
	v-1.947c1.332-0.812,2.264-2.654,2.264-4.803c0-2.899-1.693-5.25-3.781-5.25s-3.781,2.351-3.781,5.25
	C374.594,79.403,375.529,81.249,376.865,82.059z"/>
<path fill-rule="evenodd" clip-rule="evenodd" d="M264,118v7h-10v-7H264z M257,117c0,0-0.322-3.01,2.01-3.01
	c2.332,0,1.99,2.582,1.99,3.01c0.675,0.016,1.521-0.001,2,0c0-2.697-0.954-5-4-5c-3.046,0-4,2.907-4,5
	C255.939,117.032,257,117,257,117z"/>
<g>
	<path d="M233.5,111c-4.076,0-7.602,2.327-9.342,5.721c0.157,0.905,0.436,1.765,0.819,2.568c0.3-0.18,0.647-0.29,1.023-0.29
		c1.105,0,2,0.895,2,2c0,0.579-0.249,1.096-0.642,1.461c0.743,0.662,1.589,1.205,2.504,1.624L238,120l-3.31,4.965
		c1.778-0.122,3.429-0.7,4.831-1.63c-0.32-0.355-0.52-0.82-0.52-1.335c0-1.105,0.895-2,2-2c0.515,0,0.98,0.2,1.335,0.52
		c0.473-0.712,0.851-1.49,1.13-2.314C242.083,114.022,238.147,111,233.5,111z M229,118c-1.105,0-2-0.895-2-2s0.895-2,2-2
		s2,0.895,2,2S230.105,118,229,118z M234,116c-1.105,0-2-0.895-2-2s0.895-2,2-2s2,0.895,2,2S235.105,116,234,116z M239,119
		c-1.105,0-2-0.895-2-2s0.895-2,2-2s2,0.895,2,2S240.105,119,239,119z"/>
</g>
<path fill-rule="evenodd" clip-rule="evenodd" d="M328,108h11v8h-11V108z M341,108v8h11v-8H341z M328,126h11v-8h-11V126z M341,126
	h10.833l0.167-8h-11V126z"/>
<g>
	<path d="M480,124v1.366c0.327,0.106,0.662,0.192,1,0.272V124h3v2c0.338,0,0.669-0.025,1-0.051V124h3v1.366
		c0.339-0.11,0.674-0.23,1-0.366v-1h1.906c1.171-0.737,2.222-1.645,3.102-2.705c0-5.132,0-10.763,0-13.467
		c0-1.203-0.655-1.828-1.854-1.828c-3.529,0-11.719,0-15.27,0c-1.21,0-1.884,0.646-1.884,1.826c0,2.88,0,9.131,0,14.54
		c0.639,0.614,1.341,1.159,2.094,1.633H480z M484,122h-3v-3h3V122z M484,117h-3v-3h3V117z M488,122h-3v-3h3V122z M488,117h-3v-3h3
		V117z M492,122h-3v-3h3V122z M492,117h-3v-3h3V117z M477,108h15v4h-15V108z M477,114h3v3h-3V114z M477,119h3v3h-3V119z"/>
</g>
<path d="M454.809,102.997c-2.542,0-8.804,0-14.109,0C437.829,105.382,436,108.977,436,113c0,2.533,0.736,4.889,1.989,6.887
	c4.874,0,11.075,0,11.075,0l4.964,4.113v-4.094c0,0,0.038-0.018,0.746-0.018c1.123,0,1.224-0.63,1.224-1.349
	c0-3.338,0-10.969,0-14.247C455.997,103.292,455.636,102.997,454.809,102.997z M445.712,117.858h-2.446v-2.047h2.446V117.858z
	 M448.158,109.158c-0.181,3.071-2.52,2.127-2.446,5.118c-0.233,0-2.149,0-2.446,0c-0.295-3.841,2.447-3.531,2.446-5.118
	c-0.002-2.499-3.662-2.364-2.935,0.512c-1.633,0-0.622,0.006-2.446,0C439.049,103.749,448.49,103.536,448.158,109.158z"/>
<path d="M409.094,124H410v0.526c0.638,0.333,1.305,0.616,2,0.841V124h3v1.949c0.331,0.025,0.662,0.051,1,0.051s0.669-0.025,1-0.051
	V124h3v1.366c0.695-0.225,1.362-0.508,2-0.841V124h0.906c1.654-1.041,3.053-2.44,4.094-4.094V110h-2v-3h-6v3h-6v-3h-6v3h-2v9.906
	C406.041,121.56,407.44,122.959,409.094,124z M425,122h-3v-3h3V122z M425,117h-3v-3h3V117z M421,108h2v4h-2V108z M417,114h3v3h-3
	V114z M417,119l2.7,0.025L420,122h-3V119z M412,114h3v3h-3V114z M412,119h3v3h-3V119z M409,108h2v4h-2V108z M407,114h3v3h-3V114z
	 M407,119h3v3h-3V119z M410,124v0.526"/>
<path fill-rule="evenodd" clip-rule="evenodd" d="M392,106l2-2l2.531,3.188l-2,2L392,106z M387,118.562L384,121l-7.711,1.151
	L379,115l7.5-7h-16.867c-0.614,0.639-1.159,1.341-1.633,2.094v13.812c0.567,0.901,1.236,1.727,2,2.461V126h2v1.943
	c2.022,1.296,4.42,2.057,7,2.057c3.02,0,5.793-1.039,8-2.767c3.039-2.38,5-6.073,5-10.233c0-0.794-0.082-1.568-0.219-2.322
	L387,118.562z M372,124h-2v-2h2V124z M372,120h-2v-2h2V120z M372,116h-2v-2h2V116z M372,112h-2v-2h2V112z M381.263,117.665v1.121
	h1.105v1.121L378,121l2-4L381.263,117.665z M380,116l7-5.727l1.969-1.611L391,107l2.562,3.25l-2.42,2.139L387,116.051l-4.08,3.607
	l0.001-1.432h-1.105v-1.121L380,116z"/>
<path fill-rule="evenodd" clip-rule="evenodd" d="M165,105h16v12h-16V105z M182,105v12h16v-12H182z M165,130h16v-12h-16V130z
	 M182,130h16v-12h-16V130z"/>
<path fill-rule="evenodd" clip-rule="evenodd" d="M172.45,89.2h9.9v0.9h-10.8V75.7h0.9V89.2z M182.927,73.906h-8.271v1v12.156
	h-0.006V73.9l-1.3,0v14.4h10.8V73.9h-1.223V73.906z M186.017,73.9v1.012L199.45,73.9H186.017z M186.017,77.95l11.367-1.013h-11.367
	V77.95z M186.017,80.987l9.3-1.012h-9.3V80.987z M186.017,84.025l7.233-1.013h-7.233V84.025z M186.017,87.062l4.133-1.012h-4.133
	V87.062z"/>
<path d="M233,72.856l-3-2.115v-3.742c0,0,0.691-0.999,1.409-0.999c0.779,0,1.591,0.999,1.591,0.999V72.856z M230,80.416v-0.4
	l3-1.586l3.838-2.03L234,74.889l-1-0.533l-1.999-1.065L230,72.624v0.134l-7-3.729l-10,1.391l10,8.599L230,80.416z M240.133,76.039
	L240,76.021l-2,1.058v0.068l-5,2.596v-0.019l-1.774,0.938l-0.209,0.111L230,81.299v0.01l-7,3.702v4.995l7-1.645v6.64
	c0,0,0.812,0.999,1.592,0.999c0.718,0,1.408-0.999,1.408-0.999v-7.345l7-1.645l10-8.599L240.133,76.039z"/>
<path fill-rule="evenodd" clip-rule="evenodd" d="M267.003,73.597L274,70v17l-6.997,3.002V73.597z M283,74v16l7-3.582V70L283,74z
	 M275,86l7,4V74l-7-4V86z"/>
<path d="M317.946,89.416C315.615,91.632,312.47,93,309,93c-3.242,0-6.201-1.195-8.478-3.158C301.326,88.815,302.211,88,303,88
	c0.777,0,1.985-1.018,4-1.601v-2.887c-2.449-1.117-3-4.054-3-7.512c0-4.418,0.885-7,5.5-7s5.5,2.582,5.5,7
	c0,3.458-0.551,6.396-3,7.512v2.757c2.198,0.542,3.339,1.73,4,1.73C316.545,88,317.245,88.598,317.946,89.416z"/>
<g>
	<path d="M289,111c-7.687,4.937-10.875,10.729-10.875,13c-1.991-3.669-3.603-4.695-5.125-6l2-2l3,3C278,119,279.953,114.279,289,111
		z M282.5,123c0,0.827-0.673,1.5-1.5,1.5h-2.375h-0.797H274c-0.827,0-1.5-0.673-1.5-1.5v-4.77l-0.235-0.202l0.235-0.235V116
		c0-0.827,0.673-1.5,1.5-1.5h7c0.101,0,0.2,0.011,0.296,0.03c0.292-0.228,0.603-0.458,0.939-0.69c-0.366-0.21-0.784-0.34-1.235-0.34
		h-7c-1.378,0-2.5,1.122-2.5,2.5v7c0,1.378,1.122,2.5,2.5,2.5h4.37h0.255H281c1.378,0,2.5-1.122,2.5-2.5v-6.98
		c-0.354,0.354-0.69,0.704-1,1.049V123z"/>
</g>
</svg>
